P2
# Created by GIMP version 2.10.22 PNM plug-in
3 2
255
255
145
216
216
193
70
