P3
# Created by GIMP version 2.10.22 PNM plug-in
3 2
255
255
255
255
253
81
89
213
213
255
213
213
255
188
188
255
67
67
103
